<svg xmlns="http://www.w3.org/2000/svg" width="128" height="128" viewBox="0 0 128 128">
  <defs>
    <linearGradient id="bg" x1="0" y1="0" x2="0" y2="1">
      <stop offset="0%" stop-color="#2d2d2d"/>
      <stop offset="100%" stop-color="#181818"/>
    </linearGradient>
  </defs>

  <rect x="2" y="2" width="124" height="124" rx="22" fill="url(#bg)"/>

  <!-- Python logo: simplified interlocking shapes -->
  <!-- Blue snake (right/outer) -->
  <path d="M 58 42 C 78 42 86 50 86 64 C 86 78 78 86 62 86 C 46 86 40 80 40 72 L 48 72 C 48 76 52 80 62 80 C 74 80 78 74 78 64 C 78 54 74 48 58 48 Z" fill="#3776ab"/>
  <!-- Blue snake eye -->
  <circle cx="54" cy="52" r="3" fill="#fff"/>

  <!-- Yellow snake (left/inner) -->
  <path d="M 62 38 C 44 38 36 46 36 58 C 36 70 44 78 58 78 C 62 78 68 76 72 72 L 66 68 C 64 70 60 72 58 72 C 48 72 44 66 44 58 C 44 50 48 44 62 44 Z" fill="#ffd343"/>
  <!-- Yellow snake eye -->
  <circle cx="58" cy="50" r="3" fill="#fff"/>

  <!-- Deerstalker hat -->
  <!-- Main hat dome -->
  <path d="M 40 42 L 40 34 C 40 26 48 20 64 20 C 80 20 88 26 88 34 L 88 42 Z" fill="#5d4037"/>
  <!-- Hat brim/peak -->
  <path d="M 38 34 C 38 30 44 24 64 22 C 84 24 90 30 90 34 C 90 36 86 36 84 34 C 82 30 74 28 64 28 C 54 28 46 30 44 34 C 42 36 38 36 38 34 Z" fill="#4e342e"/>
  <!-- Hat band -->
  <rect x="40" y="36" width="48" height="4" rx="2" fill="#3e2723"/>
  <!-- Left ear flap -->
  <path d="M 40 38 C 36 38 32 42 32 48 L 34 48 C 36 44 38 42 40 42 Z" fill="#5d4037"/>
  <path d="M 32 48 C 30 52 32 56 34 56 C 36 56 38 54 38 50 Z" fill="#4e342e"/>
  <!-- Right ear flap -->
  <path d="M 88 38 C 92 38 96 42 96 48 L 94 48 C 92 44 90 42 88 42 Z" fill="#5d4037"/>
  <path d="M 96 48 C 98 52 96 56 94 56 C 92 56 90 54 90 50 Z" fill="#4e342e"/>

  <!-- Small badge on hat: "CD" -->
  <circle cx="64" cy="30" r="5" fill="#ffd343"/>
  <text x="64" y="33" text-anchor="middle" font-size="7" font-weight="bold" fill="#333" font-family="sans-serif">CD</text>
</svg>
